<?xml version="1.0" encoding="utf-8"?>
<!-- Generator: Adobe Illustrator 24.3.0, SVG Export Plug-In . SVG Version: 6.00 Build 0)  -->
<svg version="1.1" xmlns="http://www.w3.org/2000/svg" xmlns:xlink="http://www.w3.org/1999/xlink" x="0px" y="0px"
	 viewBox="0 0 166.5 55.9" style="enable-background:new 0 0 166.5 55.9;" xml:space="preserve">
<style type="text/css">
	.st0{fill:url(#SVGID_1_);}
	.st1{fill:url(#SVGID_2_);}
	.st2{fill:url(#SVGID_3_);}
	.st3{fill:url(#SVGID_4_);}
	.st4{fill:#E82F89;}
	.st5{fill:#68B86B;}
	.st6{fill:#3C73B9;}
	.st7{fill:#FAEA27;}
	.st8{fill:#FFFFFF;}
</style>
<g id="Guías">
</g>
<g id="Marcas_de_recorte">
	<g>
		<g>
			
				<linearGradient id="SVGID_1_" gradientUnits="userSpaceOnUse" x1="562.5628" y1="-1190.7874" x2="562.5628" y2="-1171.4739" gradientTransform="matrix(-1.346898e-10 1 -1 -1.346898e-10 -1170.0073 -555.3687)">
				<stop  offset="0" style="stop-color:#FFFFFF;stop-opacity:0"/>
				<stop  offset="9.362776e-02" style="stop-color:#FFFBFD;stop-opacity:0.1338"/>
				<stop  offset="0.1907" style="stop-color:#FDEEF6;stop-opacity:0.2724"/>
				<stop  offset="0.2894" style="stop-color:#FBDAEA;stop-opacity:0.4134"/>
				<stop  offset="0.3892" style="stop-color:#F8BDD9;stop-opacity:0.5559"/>
				<stop  offset="0.4898" style="stop-color:#F497C4;stop-opacity:0.6997"/>
				<stop  offset="0.5912" style="stop-color:#EE69AA;stop-opacity:0.8446"/>
				<stop  offset="0.6914" style="stop-color:#E9348C;stop-opacity:0.9878"/>
				<stop  offset="0.7" style="stop-color:#E82F89"/>
			</linearGradient>
			<rect x="1.5" y="2.1" class="st0" width="19.3" height="10.3"/>
			
				<linearGradient id="SVGID_2_" gradientUnits="userSpaceOnUse" x1="572.7943" y1="-1190.7874" x2="572.7943" y2="-1171.4739" gradientTransform="matrix(-1.346898e-10 1 -1 -1.346898e-10 -1170.0073 -555.3687)">
				<stop  offset="0" style="stop-color:#FFFFFF;stop-opacity:0"/>
				<stop  offset="0.1104" style="stop-color:#FBFDFB;stop-opacity:0.1577"/>
				<stop  offset="0.2248" style="stop-color:#EEF7EF;stop-opacity:0.3212"/>
				<stop  offset="0.3411" style="stop-color:#DAEDDA;stop-opacity:0.4873"/>
				<stop  offset="0.4587" style="stop-color:#BDE0BE;stop-opacity:0.6553"/>
				<stop  offset="0.5773" style="stop-color:#97CE99;stop-opacity:0.8247"/>
				<stop  offset="0.6952" style="stop-color:#6AB96D;stop-opacity:0.9932"/>
				<stop  offset="0.7" style="stop-color:#68B86B"/>
			</linearGradient>
			<rect x="1.5" y="12.3" class="st1" width="19.3" height="10.3"/>
			
				<linearGradient id="SVGID_3_" gradientUnits="userSpaceOnUse" x1="583.0316" y1="-1190.7874" x2="583.0316" y2="-1171.4739" gradientTransform="matrix(-1.346898e-10 1 -1 -1.346898e-10 -1170.0073 -555.3687)">
				<stop  offset="0" style="stop-color:#FFFFFF;stop-opacity:0"/>
				<stop  offset="9.678561e-02" style="stop-color:#FBFCFE;stop-opacity:0.1383"/>
				<stop  offset="0.1971" style="stop-color:#EEF3F9;stop-opacity:0.2816"/>
				<stop  offset="0.2992" style="stop-color:#DAE4F2;stop-opacity:0.4274"/>
				<stop  offset="0.4023" style="stop-color:#BDCFE7;stop-opacity:0.5747"/>
				<stop  offset="0.5063" style="stop-color:#97B4DA;stop-opacity:0.7233"/>
				<stop  offset="0.6096" style="stop-color:#6A94C9;stop-opacity:0.8709"/>
				<stop  offset="0.7" style="stop-color:#3C73B9"/>
			</linearGradient>
			<rect x="1.5" y="22.5" class="st2" width="19.3" height="10.3"/>
			
				<linearGradient id="SVGID_4_" gradientUnits="userSpaceOnUse" x1="593.2689" y1="-1190.7874" x2="593.2689" y2="-1171.4739" gradientTransform="matrix(-1.346898e-10 1 -1 -1.346898e-10 -1170.0073 -555.3687)">
				<stop  offset="0" style="stop-color:#FFFFFF;stop-opacity:0"/>
				<stop  offset="9.182923e-02" style="stop-color:#FFFFFB;stop-opacity:0.1312"/>
				<stop  offset="0.187" style="stop-color:#FFFDEE;stop-opacity:0.2672"/>
				<stop  offset="0.2838" style="stop-color:#FEFBDA;stop-opacity:0.4055"/>
				<stop  offset="0.3817" style="stop-color:#FDF9BD;stop-opacity:0.5453"/>
				<stop  offset="0.4805" style="stop-color:#FDF597;stop-opacity:0.6864"/>
				<stop  offset="0.58" style="stop-color:#FCF069;stop-opacity:0.8286"/>
				<stop  offset="0.6783" style="stop-color:#FAEB34;stop-opacity:0.969"/>
				<stop  offset="0.7" style="stop-color:#FAEA27"/>
			</linearGradient>
			<rect x="1.5" y="32.8" class="st3" width="19.3" height="10.3"/>
		</g>
		<g>
			<rect x="49.6" y="5.5" class="st4" width="4.4" height="4.4"/>
			<rect x="49.6" y="1.1" class="st5" width="4.4" height="4.4"/>
			<rect x="45.3" y="1.1" class="st6" width="4.4" height="4.4"/>
			<rect x="45.3" y="5.5" class="st7" width="4.4" height="4.4"/>
		</g>
		<g>
			<rect x="156" y="34.3" class="st4" width="4.4" height="4.4"/>
			<rect x="156" y="38.7" class="st5" width="4.4" height="4.4"/>
			<rect x="160.3" y="38.7" class="st6" width="4.4" height="4.4"/>
			<rect x="160.3" y="34.3" class="st7" width="4.4" height="4.4"/>
		</g>
		<path class="st8" d="M39,5.3c-2.4-2.1-5.7-3.2-9.8-3.2H11.6v41h9.2V28.6h7.9c4.4,0,7.9-1,10.3-3c2.4-2,3.7-5.5,3.7-10.4
			C42.7,10.8,41.5,7.4,39,5.3z M20.8,9.9h7.1c1.8,0,3.2,0.4,4.2,1.2c1,0.8,1.4,2.2,1.4,4.1c0,1.9-0.5,3.4-1.4,4.2
			c-1,0.9-2.4,1.3-4.2,1.3h-7.1V9.9z"/>
		<rect x="45.3" y="12.5" class="st8" width="8.8" height="30.6"/>
		<g>
			<path class="st8" d="M70.9,19.2c1.7,0,2.9,0.5,3.7,1.6c0.6,0.8,0.9,1.8,1,2.8l0.1,0.4h8.8l-0.1-0.5c-0.4-4.3-1.9-7.4-4.4-9.2
				c-2.4-1.7-5.6-2.6-9.4-2.6c-4.5,0-8.1,1.5-10.6,4.4c-2.6,2.9-3.8,7-3.8,12.2c0,4.6,1.2,8.4,3.5,11.3c2.3,2.9,6,4.4,10.9,4.4
				c4.9,0,8.7-1.8,11.2-5.3c1.6-2.2,2.5-4.5,2.6-6.9l0-0.5h-8.8l0,0.4c-0.2,1.5-0.6,2.7-1.3,3.6c-0.7,0.9-1.9,1.3-3.5,1.3
				c-2.4,0-4-1.1-4.8-3.4c-0.5-1.3-0.7-3-0.7-5.1c0-2.2,0.2-4,0.7-5.3C66.8,20.4,68.4,19.2,70.9,19.2z"/>
			<path class="st8" d="M110.4,27.1c0,2.7-0.3,4.6-0.9,5.8l0,0c-0.9,2.1-3,3.1-6.2,3.1c-3.2,0-5.3-1-6.2-3.1l0,0
				c-0.6-1.2-0.9-3.2-0.9-5.8V2.1h-9.4v25.1c0,4.3,0.7,7.7,2,10.2c2.6,4.5,7.4,6.8,14.5,6.8c7.1,0,12-2.3,14.5-6.8
				c1.4-2.4,2-5.9,2-10.2V2.1h-9.4V27.1z"/>
			<path class="st8" d="M149.3,15.8c-2.5-2.6-5.6-4-9.2-4c-2.5,0-4.7,0.7-6.5,2.1c-0.7,0.5-1.3,1.2-2,2v-3.4h-8.3v42.2h8.6V40.2
				c0.6,0.8,1.2,1.4,1.8,1.8c1.6,1.2,3.7,1.9,6.2,1.9c3.8,0,7-1.4,9.5-4.3c2.4-2.8,3.7-6.9,3.7-12.2C153,22.4,151.8,18.5,149.3,15.8
				z M144.1,27.8c0,2.7-0.6,4.8-1.6,6.4c-1.1,1.6-2.6,2.3-4.6,2.3c-1.4,0-2.6-0.4-3.6-1.1c-1.7-1.3-2.6-3.6-2.6-6.9
				c0-2.1,0.3-3.9,0.8-5.2c1-2.5,2.8-3.7,5.4-3.7c2.2,0,3.8,0.8,4.7,2.4v0C143.6,23.6,144.1,25.6,144.1,27.8z"/>
		</g>
		<polygon class="st8" points="155.6,2.2 155.6,12.8 157.9,32 162.8,32 165,12.9 165,2.2 		"/>
	</g>
</g>
</svg>
